<?xml version="1.0" encoding="UTF-8" standalone="no"?>
<svg width="650px" height="418px" viewBox="0 0 650 418" version="1.1" xmlns="http://www.w3.org/2000/svg" xmlns:xlink="http://www.w3.org/1999/xlink" style="background: #F3F3F3;">
    <!-- Generator: Sketch 40.2 (33826) - http://www.bohemiancoding.com/sketch -->
    <title>Artboard</title>
    <desc>Created with Sketch.</desc>
    <defs></defs>
    <g id="Page-1" stroke="none" stroke-width="1" fill="none" fill-rule="evenodd">
        <g id="Artboard">
            <g id="metex_logo" transform="translate(142.000000, 167.000000)">
                <polyline id="Fill-1" fill="#1A1918" points="0.199276018 65.4808195 4.22299095 65.4808195 4.22299095 72.7954341 12.2754027 72.7954341 12.2754027 65.4808195 16.297457 65.4808195 16.297457 83.590322 12.2754027 83.590322 12.2754027 75.6531512 4.22299095 75.6531512 4.22299095 83.590322 0.199276018 83.590322 0.199276018 65.4808195"></polyline>
                <polyline id="Fill-2" fill="#1A1918" points="27.4336652 65.4808195 39.2756425 65.4808195 39.2756425 68.3335024 31.4557195 68.3335024 31.4557195 72.7954341 38.6130498 72.7954341 38.6130498 75.6531512 31.4557195 75.6531512 31.4557195 80.735961 39.3354253 80.735961 39.3354253 83.590322 27.4336652 83.590322 27.4336652 65.4808195"></polyline>
                <path d="M57.8531493,69.1137951 L57.7950271,69.1137951 L54.8889186,76.5844683 L60.7559367,76.5844683 L57.8531493,69.1137951 L57.8531493,69.1137951 Z M55.6378643,65.4808195 L60.1796968,65.4808195 L68.0577421,83.590322 L63.6039231,83.590322 L61.8785249,79.4371512 L53.7397602,79.4371512 L51.9877919,83.590322 L47.8179412,83.590322 L55.6378643,65.4808195 L55.6378643,65.4808195 Z" id="Fill-3" fill="#1A1918"></path>
                <polyline id="Fill-4" fill="#1A1918" points="78.4748959 68.3335024 72.7224615 68.3335024 72.7224615 65.4808195 88.247724 65.4808195 88.247724 68.3335024 82.4986109 68.3335024 82.4986109 83.590322 78.4748959 83.590322 78.4748959 68.3335024"></polyline>
                <polyline id="Fill-5" fill="#1A1918" points="111.793846 68.3335024 106.044733 68.3335024 106.044733 65.4808195 121.571656 65.4808195 121.571656 68.3335024 115.822543 68.3335024 115.822543 83.590322 111.793846 83.590322 111.793846 68.3335024"></polyline>
                <path d="M134.282145,73.2115902 L135.604009,73.2115902 C137.588466,73.2115902 139.858552,72.9548488 139.858552,70.6945171 C139.858552,68.5147317 137.620018,68.3335024 135.604009,68.3335024 L134.282145,68.3335024 L134.282145,73.2115902 L134.282145,73.2115902 Z M130.25843,65.4808195 L134.599326,65.4808195 C138.90867,65.4808195 144.058294,65.3516098 144.058294,70.3857561 C144.058294,72.5101659 142.47405,74.2771512 139.916674,74.5859122 L139.916674,74.6362537 C141.012692,74.7168 141.642072,75.7034927 142.043946,76.5089561 L145.263914,83.590322 L140.780204,83.590322 L138.363982,77.9336195 C137.787742,76.5844683 137.274606,76.0642732 135.575778,76.0642732 L134.282145,76.0642732 L134.282145,83.590322 L130.25843,83.590322 L130.25843,65.4808195 L130.25843,65.4808195 Z" id="Fill-6" fill="#1A1918"></path>
                <polyline id="Fill-7" fill="#1A1918" points="154.639851 65.4808195 166.483489 65.4808195 166.483489 68.3335024 158.663566 68.3335024 158.663566 72.7954341 165.824217 72.7954341 165.824217 75.6531512 158.663566 75.6531512 158.663566 80.735961 166.543271 80.735961 166.543271 83.590322 154.639851 83.590322 154.639851 65.4808195"></polyline>
                <path d="M185.057674,69.1137951 L185.002873,69.1137951 L182.100086,76.5844683 L187.963783,76.5844683 L185.057674,69.1137951 L185.057674,69.1137951 Z M182.84405,65.4808195 L187.387543,65.4808195 L195.265588,83.590322 L190.810109,83.590322 L189.08471,79.4371512 L180.947606,79.4371512 L179.193977,83.590322 L175.025787,83.590322 L182.84405,65.4808195 L182.84405,65.4808195 Z" id="Fill-8" fill="#1A1918"></path>
                <polyline id="Fill-9" fill="#1A1918" points="205.681081 68.3335024 199.933629 68.3335024 199.933629 65.4808195 215.458891 65.4808195 215.458891 68.3335024 209.704796 68.3335024 209.704796 83.590322 205.681081 83.590322 205.681081 68.3335024"></polyline>
                <polygon id="Fill-10" fill="#1A1918" points="224.147326 83.592 228.16938 83.592 228.16938 65.4808195 224.147326 65.4808195"></polygon>
                <polyline id="Fill-11" fill="#1A1918" points="238.747615 65.4808195 243.691321 65.4808195 251.340199 79.0209951 251.398321 79.0209951 251.398321 65.4808195 255.24933 65.4808195 255.24933 83.590322 250.335516 83.590322 242.656747 70.0484683 242.598624 70.0484683 242.598624 83.590322 238.747615 83.590322 238.747615 65.4808195"></polyline>
                <path d="M281.847697,68.9829073 C280.298326,68.3335024 278.285638,68.0230634 276.673163,68.0230634 C271.986855,68.0230634 269.399588,70.8774244 269.399588,74.5859122 C269.399588,78.2709073 271.928733,81.0464 276.211507,81.0464 C277.305864,81.0464 278.169394,80.942361 278.858557,80.7879805 L278.858557,76.0642732 L274.602353,76.0642732 L274.602353,73.2115902 L282.709566,73.2115902 L282.709566,82.9677659 C280.583955,83.4862829 278.36867,83.902439 276.211507,83.902439 C269.713448,83.902439 265.203167,80.9708878 265.203167,74.8476878 C265.203167,68.6456195 269.399588,65.1720585 276.211507,65.1720585 C278.539715,65.1720585 280.381357,65.4573268 282.106756,65.9187902 L281.847697,68.9829073" id="Fill-12" fill="#1A1918"></path>
                <polyline id="Fill-13" fill="#1A1918" points="304.276213 65.4808195 308.299928 65.4808195 308.299928 80.735961 316.093281 80.735961 316.093281 83.590322 304.276213 83.590322 304.276213 65.4808195"></polyline>
                <polyline id="Fill-14" fill="#1A1918" points="326.136792 68.3335024 320.387679 68.3335024 320.387679 65.4808195 335.912941 65.4808195 335.912941 68.3335024 330.158846 68.3335024 330.158846 83.590322 326.136792 83.590322 326.136792 68.3335024"></polyline>
                <path d="M346.089303,80.735961 L348.33448,80.735961 C351.698923,80.735961 354.945462,78.4806634 354.945462,74.5355707 C354.945462,70.5921561 351.698923,68.3335024 348.33448,68.3335024 L346.089303,68.3335024 L346.089303,80.735961 L346.089303,80.735961 Z M342.065588,65.4808195 L347.557303,65.4808195 C353.70995,65.4808195 359.146864,67.3468098 359.146864,74.5355707 C359.146864,81.7226537 353.70995,83.590322 347.557303,83.590322 L342.065588,83.590322 L342.065588,65.4808195 L342.065588,65.4808195 Z" id="Fill-15" fill="#1A1918"></path>
                <polygon id="Fill-16" fill="#1A1918" points="361.762362 83.590322 365.786077 83.590322 365.786077 79.9590244 361.762362 79.9590244"></polygon>
                <polyline id="Fill-17" fill="#006E39" points="129.560964 0.369170732 129.21057 0.369170732 115.183199 43.0570537 101.260448 0.70142439 101.150846 0.369170732 82.8788959 0.369170732 82.8788959 58.3457561 95.9580452 58.3457561 95.9414389 57.8473756 94.8520633 16.2334439 108.754887 58.0135024 108.864489 58.3457561 122.127968 58.3457561 122.23757 58.0101463 135.68538 16.7284683 134.811887 57.8507317 134.800262 58.3457561 147.404471 58.3457561 147.404471 0.369170732 129.560964 0.369170732"></polyline>
                <path d="M180.950928,0.369170732 C172.083145,0.369170732 165.605014,2.55566829 161.149534,7.05787317 C156.282217,11.9762341 153.914154,19.609678 153.914154,30.3877854 C153.914154,40.9813073 156.800335,48.4553366 162.73876,53.2394537 C168.582529,57.9614829 174.303412,58.3457561 180.637068,58.3457561 L201.152534,58.3457561 L201.152534,47.4468293 L181.186738,47.4468293 C172.103072,47.4468293 168.449679,43.7870049 168.252063,34.4486634 L201.152534,34.4486634 L201.152534,23.5514146 L168.355023,23.5514146 C168.95119,15.1829854 173.033027,11.2680976 181.186738,11.2680976 L201.152534,11.2680976 L201.152534,0.369170732 L180.950928,0.369170732" id="Fill-18" fill="#006E39"></path>
                <polyline id="Fill-19" fill="#006E39" points="254.912222 11.3469659 255.395466 11.3469659 255.395466 0.453073171 205.642887 0.453073171 205.642887 11.3469659 223.868339 11.3469659 223.868339 58.3457561 237.088643 58.3457561 237.088643 11.3469659 254.912222 11.3469659"></polyline>
                <path d="M281.525534,0.369170732 C272.65609,0.369170732 266.176299,2.55566829 261.72414,7.05787317 C256.853502,11.9762341 254.48876,19.609678 254.48876,30.3877854 C254.48876,40.9813073 257.374941,48.4553366 263.310045,53.2394537 C269.152154,57.9614829 274.873036,58.3457561 281.211674,58.3457561 L301.72714,58.3457561 L301.72714,47.4468293 L281.756362,47.4468293 C272.674357,47.4468293 269.019303,43.7870049 268.823348,34.4486634 L301.72714,34.4486634 L301.72714,23.5514146 L268.927968,23.5514146 C269.520814,15.1829854 273.604312,11.2680976 281.756362,11.2680976 L301.72714,11.2680976 L301.72714,0.369170732 L281.525534,0.369170732" id="Fill-20" fill="#006E39"></path>
                <polyline id="Fill-21" fill="#006E39" points="358.710118 57.583922 339.408575 28.5654244 357.376629 1.12597073 357.871498 0.369170732 343.042041 0.369170732 331.754715 17.9836488 320.532154 0.590673171 305.314109 0.369170732 305.825584 1.13100488 324.728575 29.3524293 305.201186 57.5805659 304.668122 58.3457561 319.91938 58.3457561 332.21471 38.9324098 343.678063 58.1091512 359.216611 58.3457561 358.710118 57.583922 412.15625 142.359375"></polyline>
                <polyline id="Fill-22" fill="#006E39" points="66.3489502 0.182907317 66.3489502 58.4112 48.1749774 58.4112 48.1749774 18.2487805 41.5274615 39.7479415 24.82481 39.7479415 18.1723122 18.2487805 18.1723122 58.4112 0 58.4112 0 0.182907317 66.3489502 0.182907317"></polyline>
                <polyline id="Fill-23" fill="#006E39" points="29.3035385 47.3260098 37.3476471 47.3260098 37.3476471 58.7065366 41.7400226 58.7065366 41.7400226 42.5821659 24.7467602 42.5821659 24.7467602 58.7065366 29.3035385 58.7065366 29.3035385 47.3260098"></polyline>
            </g>
        </g>
    </g>
</svg>