<?xml version="1.0" encoding="utf-8"?>
<!-- Generator: Adobe Illustrator 16.0.4, SVG Export Plug-In . SVG Version: 6.00 Build 0)  -->
<!DOCTYPE svg PUBLIC "-//W3C//DTD SVG 1.1//EN" "http://www.w3.org/Graphics/SVG/1.1/DTD/svg11.dtd" [
	<!ENTITY ns_flows "http://ns.adobe.com/Flows/1.0/">
	<!ENTITY ns_extend "http://ns.adobe.com/Extensibility/1.0/">
	<!ENTITY ns_ai "http://ns.adobe.com/AdobeIllustrator/10.0/">
	<!ENTITY ns_graphs "http://ns.adobe.com/Graphs/1.0/">
]>
<svg version="1.1" id="Layer_1" xmlns:x="&ns_extend;" xmlns:i="&ns_ai;" xmlns:graph="&ns_graphs;"
	 xmlns="http://www.w3.org/2000/svg" xmlns:xlink="http://www.w3.org/1999/xlink" xmlns:a="http://ns.adobe.com/AdobeSVGViewerExtensions/3.0/"
	 x="0px" y="0px" width="650px" height="418px" viewBox="0 0 650 418" enable-background="new 0 0 650 418" xml:space="preserve">
<rect fill="#2B96FE" width="650" height="418"/>
<g id="_x2E_svg">
	<g>
		<path fill="#FFFFFF" d="M194.176,186.591h13.492c6.171,0,10.621,0.861,13.348,2.584c2.726,1.722,4.162,4.449,4.162,8.324
			c0,2.583-0.573,4.736-1.866,6.314c-1.148,1.723-2.871,2.585-4.88,3.015v0.287c2.727,0.573,4.736,1.723,5.884,3.445
			s1.866,3.875,1.866,6.602c0,3.875-1.435,7.033-4.307,9.188c-2.869,2.151-6.745,3.301-11.625,3.301h-16.074V186.591
			L194.176,186.591z M203.218,203.67h5.311c2.44,0,4.305-0.43,5.453-1.147c1.149-0.718,1.723-2.01,1.723-3.876
			c0-1.722-0.574-2.871-1.866-3.588c-1.291-0.717-3.157-1.148-5.741-1.148h-4.879v9.759H203.218z M203.218,210.991v11.194h6.029
			c2.583,0,4.305-0.43,5.598-1.436c1.146-1.005,1.864-2.439,1.864-4.448c0-3.59-2.584-5.312-7.605-5.312L203.218,210.991
			L203.218,210.991z"/>
	</g>
	<g>
		<path fill="#FFFFFF" d="M252.447,196.064c1.149,0,2.297,0.143,3.015,0.287l-0.718,8.468c-0.718-0.143-1.58-0.287-2.728-0.287
			c-2.87,0-5.167,0.717-6.746,2.153c-1.578,1.435-2.44,3.588-2.44,6.17v16.793h-8.753v-33.011h6.744l1.292,5.598h0.43
			c1.004-1.866,2.439-3.301,4.162-4.449S250.438,196.064,252.447,196.064z"/>
	</g>
	<g>
		<path fill="#FFFFFF" d="M280.004,229.65l-1.721-4.45h-0.288c-1.578,1.866-3.014,3.301-4.736,4.019
			c-1.579,0.719-3.732,1.148-6.314,1.148c-3.159,0-5.598-0.86-7.464-2.727c-1.866-1.865-2.727-4.449-2.727-7.75
			c0-3.445,1.291-6.029,3.732-7.75c2.44-1.724,6.171-2.586,11.051-2.729l5.741-0.143v-1.435c0-3.301-1.723-5.024-5.167-5.024
			c-2.584,0-5.741,0.86-9.329,2.44l-3.014-6.028c3.732-2.009,8.037-3.015,12.63-3.015c4.449,0,7.752,1.005,10.19,2.871
			c2.296,1.866,3.589,4.88,3.589,8.756v21.96h-6.173V229.65z M277.277,214.436l-3.445,0.146c-2.583,0.144-4.592,0.571-5.885,1.437
			c-1.291,0.858-1.866,2.151-1.866,4.019c0,2.582,1.437,3.875,4.307,3.875c2.154,0,3.732-0.574,5.023-1.866
			c1.293-1.148,1.866-2.727,1.866-4.738V214.436z"/>
	</g>
	<g>
		<path fill="#FFFFFF" d="M295.219,188.171c0-2.871,1.577-4.45,4.879-4.45c3.303,0,4.88,1.436,4.88,4.45
			c0,1.435-0.431,2.439-1.291,3.301c-0.861,0.717-2.009,1.148-3.731,1.148C296.796,192.62,295.219,191.185,295.219,188.171z
			 M304.547,229.65h-9.042v-33.012h9.042V229.65z"/>
	</g>
	<g>
		<path fill="#FFFFFF" d="M344.447,229.65h-9.041v-19.232c0-2.441-0.432-4.164-1.292-5.312c-0.862-1.148-2.153-1.723-4.021-1.723
			c-2.584,0-4.305,0.861-5.453,2.584c-1.149,1.721-1.723,4.45-1.723,8.325v15.501h-9.043v-33.012h6.891l1.146,4.162h0.432
			c1.004-1.579,2.44-2.727,4.163-3.588c1.724-0.861,3.731-1.292,6.027-1.292c3.875,0,6.746,1.004,8.755,3.158
			c2.01,2.009,3.014,5.023,3.014,9.042v21.387H344.447z"/>
	</g>
	<g>
		<path fill="#FFFFFF" d="M380.475,218.312c0,3.73-1.438,6.744-4.162,8.897c-2.729,2.151-6.461,3.157-11.195,3.157
			c-5.168,0-9.043-0.717-11.77-2.01v-4.881c1.721,0.719,3.731,1.293,5.74,1.724c2.153,0.432,4.162,0.718,6.172,0.718
			c3.303,0,5.885-0.574,7.606-1.865c1.723-1.293,2.583-3.016,2.583-5.312c0-1.437-0.287-2.726-0.86-3.731
			c-0.573-1.005-1.579-1.865-3.016-2.583c-1.435-0.862-3.589-1.722-6.457-2.727c-4.019-1.436-6.892-3.157-8.613-5.167
			c-1.722-2.01-2.583-4.594-2.583-7.751c0-3.301,1.293-6.028,3.732-7.894c2.438-2.009,5.74-3.014,9.902-3.014
			c4.305,0,8.18,0.717,11.77,2.297l-1.578,4.306c-3.589-1.436-7.032-2.297-10.334-2.297c-2.583,0-4.736,0.574-6.171,1.722
			c-1.437,1.148-2.298,2.727-2.298,4.736c0,1.436,0.287,2.728,0.861,3.732c0.572,1.005,1.437,1.866,2.728,2.583
			c1.29,0.861,3.3,1.724,6.026,2.583c4.594,1.579,7.607,3.302,9.33,5.168C379.609,212.857,380.475,215.296,380.475,218.312z"/>
	</g>
	<g>
		<path fill="#FFFFFF" d="M397.84,226.205c0.86,0,1.723,0,2.439-0.145c0.86-0.144,1.436-0.285,1.864-0.43v3.73
			c-0.572,0.287-1.291,0.432-2.296,0.574c-1.004,0.144-2.009,0.287-2.727,0.287c-6.316,0-9.328-3.303-9.328-9.904V201.23h-4.595
			v-2.296l4.595-2.009l2.009-6.889h2.869v7.463h9.33v3.875h-9.33v19.089c0,2.01,0.433,3.445,1.437,4.448
			C394.968,225.775,396.117,226.205,397.84,226.205z"/>
	</g>
	<g>
		<path fill="#FFFFFF" d="M428.555,229.65l-1.006-4.596h-0.287c-1.579,2.012-3.156,3.445-4.878,4.163
			c-1.579,0.718-3.589,1.148-6.028,1.148c-3.157,0-5.741-0.86-7.607-2.439c-1.865-1.723-2.727-4.019-2.727-7.034
			c0-6.457,5.167-9.901,15.644-10.332l5.454-0.144v-2.009c0-2.585-0.573-4.45-1.579-5.599c-1.146-1.148-2.869-1.866-5.166-1.866
			c-2.728,0-5.741,0.861-9.186,2.439l-1.437-3.731c1.579-0.861,3.302-1.579,5.168-2.01c1.866-0.43,3.731-0.717,5.741-0.717
			c3.875,0,6.744,0.861,8.61,2.583c1.864,1.723,2.729,4.45,2.729,8.18v22.105h-3.445V229.65L428.555,229.65z M417.502,226.205
			c3.016,0,5.455-0.861,7.178-2.439c1.724-1.723,2.582-4.02,2.582-7.033v-2.871l-4.878,0.145c-3.877,0.145-6.747,0.719-8.47,1.866
			c-1.723,1.004-2.583,2.728-2.583,5.022c0,1.723,0.573,3.158,1.579,4.019C413.914,225.775,415.493,226.205,417.502,226.205z"/>
	</g>
	<g>
		<path fill="#FFFFFF" d="M453.958,226.205c0.861,0,1.723,0,2.439-0.145c0.861-0.144,1.436-0.285,1.865-0.43v3.73
			c-0.573,0.287-1.292,0.432-2.297,0.574c-1.004,0.144-2.009,0.287-2.726,0.287c-6.315,0-9.329-3.303-9.329-9.904V201.23h-4.594
			v-2.296l4.594-2.009l2.009-6.889h2.869v7.463h9.33v3.875h-9.33v19.089c0,2.01,0.432,3.445,1.437,4.448
			C451.088,225.775,452.379,226.205,453.958,226.205z"/>
	</g>
	<g>
		<path fill="#FFFFFF" d="M464.436,188.602c0-1.149,0.288-2.01,0.861-2.441c0.573-0.574,1.291-0.717,2.01-0.717
			c0.717,0,1.437,0.288,2.01,0.861c0.572,0.574,0.86,1.292,0.86,2.44s-0.288,1.866-0.86,2.44c-0.573,0.574-1.293,0.861-2.01,0.861
			c-0.86,0-1.58-0.288-2.01-0.861C464.724,190.61,464.436,189.749,464.436,188.602z M469.745,229.65h-4.878v-32.294h4.878V229.65z"
			/>
	</g>
	<g>
		<path fill="#FFFFFF" d="M506.775,213.574c0,5.311-1.291,9.328-4.019,12.344s-6.315,4.449-11.051,4.449
			c-2.872,0-5.455-0.717-7.751-2.01c-2.297-1.291-4.021-3.303-5.168-5.885s-1.866-5.455-1.866-8.898
			c0-5.311,1.293-9.329,4.021-12.343c2.583-2.871,6.314-4.449,10.907-4.449s8.182,1.436,10.764,4.449
			C505.484,204.245,506.775,208.409,506.775,213.574z M482.233,213.574c0,4.162,0.859,7.318,2.438,9.473
			c1.723,2.153,4.02,3.303,7.32,3.303c3.157,0,5.598-1.006,7.32-3.303c1.722-2.152,2.438-5.311,2.438-9.473
			c0-4.163-0.861-7.175-2.438-9.329c-1.724-2.152-4.163-3.157-7.32-3.157c-3.158,0-5.599,1.005-7.32,3.157
			C482.95,206.254,482.233,209.412,482.233,213.574z"/>
	</g>
	<g>
		<path fill="#FFFFFF" d="M536.343,229.65v-20.812c0-2.584-0.575-4.593-1.866-5.885c-1.148-1.291-3.014-2.009-5.598-2.009
			c-3.445,0-5.885,0.861-7.464,2.726c-1.579,1.866-2.296,4.881-2.296,9.042v16.938h-4.88v-32.294h4.019l0.861,4.449h0.287
			c1.006-1.578,2.439-2.87,4.161-3.731c1.865-0.861,3.876-1.292,6.028-1.292c3.875,0,6.891,1.005,8.755,2.871
			c2.011,1.865,3.015,4.88,3.015,9.042v21.099h-5.022V229.65L536.343,229.65z"/>
	</g>
	<g>
		<g>
			<g>
				<path fill="#FFFFFF" d="M549.404,196.064h-1.149v-6.028h-2.01v-1.005h5.312v1.005h-2.01v6.028H549.404z M555.288,196.064
					l-2.009-5.454h-0.145v1.292v4.163h-1.148v-7.033h1.866l1.865,5.455l2.01-5.455h1.723v7.033h-1.293v-4.163v-1.292h-0.145
					l-2.009,5.454H555.288z"/>
			</g>
		</g>
	</g>
	<g>
		<g>
			<path fill="#FFFFFF" d="M106.481,248.596c-1.579,0-3.014-0.719-3.732-2.01l-11.481-18.085c-0.574-1.005-0.718-1.866-0.718-2.869
				l2.009-32.726c0-1.004,0.431-2.009,1.148-2.727l18.084-19.375c1.149-1.149,2.871-1.723,4.449-1.292l7.32,2.009
				c2.009,0.574,3.301,2.296,3.301,4.306v65.162c0,2.151-1.579,4.019-3.588,4.305l-15.932,3.015
				C107.055,248.451,106.769,248.596,106.481,248.596z M115.093,172.957c-0.288,0-0.431,0.144-0.574,0.288L96.434,192.62
				c-0.143,0.144-0.287,0.287-0.287,0.574l-2.01,32.724c0,0.145,0,0.432,0.144,0.573l11.482,18.085
				c0.144,0.287,0.574,0.432,0.861,0.432l15.932-3.016c0.431-0.145,0.717-0.43,0.717-0.859v-65.306c0-0.431-0.287-0.717-0.717-0.861
				l-7.321-1.866C115.236,172.957,115.093,172.957,115.093,172.957z"/>
		</g>
		<g>
			<path fill="#FFFFFF" d="M123.992,207.402L123.992,207.402c-0.431,0-0.861-0.143-1.148-0.287l-27.271-12.487
				c-1.004-0.431-1.579-1.435-1.722-2.44c0-1.004,0.431-2.009,1.435-2.583l27.271-16.362c0.431-0.288,1.004-0.431,1.435-0.431
				c1.579,0,2.871,1.291,2.871,2.871v28.849c0,0.717-0.288,1.578-0.861,2.009C125.427,207.116,124.709,207.402,123.992,207.402z
				 M98.3,191.902l24.974,11.482v-26.552L98.3,191.902z"/>
		</g>
		<g>
			<path fill="#FFFFFF" d="M105.62,248.739L105.62,248.739c-1.004,0-1.866-0.433-2.44-1.294l-10.333-16.504
				c-0.574-0.861-0.574-2.01-0.144-2.871c0.718-1.437,2.441-2.01,3.876-1.293l26.409,13.349c1.148,0.575,1.722,1.724,1.578,3.017
				c-0.144,1.291-1.148,2.151-2.296,2.438l-16.075,3.015C106.05,248.739,105.907,248.739,105.62,248.739z M97.295,231.229
				l8.755,13.779l13.492-2.584L97.295,231.229z"/>
		</g>
		<g>
			<path fill="#FFFFFF" d="M93.563,227.496L93.563,227.496c-0.717,0-1.579-0.286-2.152-0.861c-0.574-0.572-0.861-1.435-0.718-2.152
				l1.866-31c0.143-1.435,1.292-2.727,2.871-2.727c0.431,0,0.861,0.143,1.148,0.287l27.414,12.629
				c1.004,0.432,1.579,1.436,1.722,2.441c0,1.004-0.43,2.009-1.292,2.584l-29.423,18.371
				C94.568,227.354,93.994,227.496,93.563,227.496z M96.147,194.772l-1.866,28.562l26.983-16.936L96.147,194.772z"/>
		</g>
		<g>
			<path fill="#FFFFFF" d="M100.454,190.18L100.454,190.18c-1.149,0-2.153-0.718-2.584-1.722c-0.431-1.005-0.287-2.297,0.574-3.014
				l14.066-15.214c0.717-0.717,1.866-1.148,2.87-0.861l7.75,2.009c1.148,0.287,2.009,1.292,2.153,2.296
				c0.144,1.149-0.431,2.297-1.292,2.871l-22.103,13.205C101.458,190.037,100.884,190.18,100.454,190.18z M114.805,172.957
				l-10.333,11.052l16.075-9.616L114.805,172.957z"/>
		</g>
		<g>
			<path fill="#FFFFFF" d="M123.992,244.434c-0.431,0-0.861-0.146-1.292-0.289l-29.567-15.068c-0.86-0.432-1.579-1.436-1.579-2.44
				c0-1.003,0.431-2.009,1.292-2.581l29.423-18.517c0.431-0.287,1.005-0.43,1.579-0.43c1.579,0,2.871,1.293,2.871,2.871v33.442
				C126.862,243.143,125.57,244.434,123.992,244.434z M96.003,226.491l27.271,13.778v-30.858L96.003,226.491z"/>
		</g>
		<g>
			<path fill="#FFFFFF" d="M153.845,248.596c-0.288,0-0.575,0-0.861-0.145l-15.932-3.014c-2.153-0.431-3.588-2.297-3.588-4.306
				v-65.306c0-2.009,1.436-3.732,3.301-4.306l7.32-1.866c1.579-0.431,3.301,0.144,4.45,1.292l17.94,19.376
				c0.717,0.718,1.148,1.723,1.148,2.727l2.01,32.725c0,1.004-0.144,1.865-0.718,2.582l-11.482,18.086
				C156.716,247.732,155.28,248.596,153.845,248.596z M145.233,172.957c-0.143,0-0.143,0-0.287,0l-7.32,2.009
				c-0.431,0.144-0.718,0.431-0.718,0.861v65.162c0,0.43,0.288,0.717,0.718,0.858l15.931,3.017c0.288,0,0.718-0.146,0.861-0.433
				l11.482-18.084c0.143-0.144,0.143-0.287,0.143-0.572l-2.009-32.726c0-0.144-0.143-0.431-0.287-0.574l-17.94-19.232
				C145.664,173.1,145.377,172.957,145.233,172.957z"/>
		</g>
		<g>
			<path fill="#FFFFFF" d="M136.191,207.402c-1.579,0-2.871-1.291-2.871-2.869v-28.849c0-1.58,1.292-2.871,2.871-2.871
				c0.574,0,1.004,0.143,1.435,0.431l27.27,16.362c0.861,0.574,1.436,1.579,1.436,2.583c0,1.005-0.718,2.009-1.723,2.44
				l-27.271,12.487C137.052,207.259,136.622,207.402,136.191,207.402z M136.908,176.832v26.409l24.974-11.482L136.908,176.832z"/>
		</g>
		<g>
			<path fill="#FFFFFF" d="M154.562,248.739c-0.144,0-0.287,0-0.574,0l-16.075-3.158c-1.292-0.287-2.153-1.147-2.296-2.438
				c-0.144-1.293,0.431-2.44,1.579-3.017l26.409-13.349c1.436-0.717,3.014-0.144,3.875,1.149c0.574,0.859,0.431,2.009-0.144,2.869
				l-10.334,16.507C156.428,248.165,155.567,248.739,154.562,248.739z M140.64,242.424l13.492,2.584l8.755-13.779L140.64,242.424z"
				/>
		</g>
		<g>
			<path fill="#FFFFFF" d="M166.763,227.496c-0.575,0-1.005-0.145-1.58-0.43l-29.279-18.372c-0.86-0.575-1.435-1.58-1.291-2.584
				c0-1.005,0.717-2.009,1.722-2.441l27.414-12.629c0.431-0.144,0.718-0.287,1.148-0.287c1.579,0,2.727,1.148,2.871,2.727
				l1.866,31.001c0,0.86-0.287,1.578-0.718,2.151C168.198,227.21,167.48,227.496,166.763,227.496z M138.918,206.399l26.983,16.936
				l-1.723-28.418L138.918,206.399z"/>
		</g>
		<g>
			<path fill="#FFFFFF" d="M159.873,190.18c-0.574,0-1.005-0.143-1.436-0.431l-21.959-13.205c-1.005-0.574-1.579-1.722-1.292-2.871
				c0.287-1.148,1.005-2.009,2.152-2.296l7.751-2.009c1.004-0.287,2.152,0,2.87,0.861l14.066,15.214
				c0.861,0.861,1.005,2.009,0.574,3.014C162.026,189.462,160.877,190.18,159.873,190.18z M139.779,174.392l16.076,9.616
				l-10.334-11.052L139.779,174.392z"/>
		</g>
		<g>
			<path fill="#FFFFFF" d="M136.191,244.434L136.191,244.434c-1.579,0-2.871-1.291-2.871-2.871v-33.441
				c0-1.578,1.292-2.871,2.871-2.871c0.574,0,1.004,0.143,1.578,0.43l29.423,18.515c0.861,0.574,1.436,1.58,1.292,2.584
				c0,1.006-0.717,2.009-1.579,2.439l-29.423,14.783C137.196,244.288,136.765,244.434,136.191,244.434z M136.908,209.412v30.857
				l27.271-13.777L136.908,209.412z"/>
		</g>
	</g>
</g>
</svg>
